<svg width="16" height="24" viewBox="0 0 16 24" fill="none" xmlns="http://www.w3.org/2000/svg">
<path d="M9.95338 1.51687H9.9575H9.95338ZM9.95338 1.51687L8.26103 10.4085L14.3919 10.4291L6.04665 22.4831L7.73902 12.7009L1.60853 12.6795L9.95338 1.51687ZM9.95452 0.0168926C9.91402 0.0168926 9.87355 0.0183691 9.8338 0.0213457C9.56905 0.0427441 9.39352 0.131244 9.18542 0.271119C9.06824 0.349246 8.96259 0.443412 8.87155 0.550869C8.8442 0.583121 8.81842 0.616659 8.79427 0.651369L0.389401 11.775C0.0575262 12.2299 0.00877618 12.8303 0.263776 13.332C0.518401 13.8338 1.03328 14.1518 1.59765 14.1559L5.9274 14.1874L4.56615 22.2075C4.43678 22.8968 4.80428 23.5838 5.45115 23.8605C5.63914 23.9413 5.84164 23.9829 6.04625 23.9828C6.51763 23.9828 6.905 23.7623 7.19565 23.364L15.611 11.31C15.9429 10.8551 15.9913 10.254 15.7366 9.75297C15.482 9.25122 14.9671 8.9332 14.4028 8.9291L10.073 8.9216L11.4197 1.86972C11.4482 1.75427 11.4626 1.63577 11.4624 1.51685C11.4624 0.705346 10.8163 0.0438457 10.0078 0.0175957C9.9898 0.0168457 9.97215 0.0168457 9.95455 0.0168457L9.95452 0.0168926Z" fill="#1D2527"/>
</svg>
