<svg width="20" height="18" viewBox="0 0 20 18" fill="none" xmlns="http://www.w3.org/2000/svg">
<path d="M4.4992 3.65202C5.86906 2.46095 7.58922 1.74787 9.4 1.62042V3.40002C9.4 3.55915 9.46321 3.71177 9.57574 3.82429C9.68826 3.93681 9.84087 4.00002 10 4.00002C10.1591 4.00002 10.3117 3.93681 10.4243 3.82429C10.5368 3.71177 10.6 3.55915 10.6 3.40002V1.62162C12.512 1.7587 14.3196 2.54532 15.7231 3.85099C17.1265 5.15666 18.0414 6.9029 18.316 8.80002H16C15.8409 8.80002 15.6883 8.86324 15.5757 8.97576C15.4632 9.08828 15.4 9.24089 15.4 9.40002C15.4 9.55915 15.4632 9.71177 15.5757 9.82429C15.6883 9.93681 15.8409 10 16 10H18.4C18.3986 11.1595 18.1628 12.3068 17.7068 13.3729C17.2509 14.439 16.5842 15.402 15.7468 16.204C15.6365 16.3144 15.5736 16.4635 15.5714 16.6195C15.5692 16.7756 15.6278 16.9263 15.7349 17.0398C15.842 17.1533 15.9891 17.2206 16.145 17.2275C16.3009 17.2343 16.4534 17.1801 16.57 17.0764C17.5264 16.1624 18.2878 15.0642 18.8086 13.848C19.3293 12.6319 19.5985 11.323 19.6 10C19.6 7.45395 18.5886 5.01215 16.7882 3.2118C14.9879 1.41145 12.5461 0.400024 10 0.400024C7.45392 0.400024 5.01213 1.41145 3.21178 3.2118C1.41143 5.01215 0.400002 7.45395 0.400002 10C0.400002 12.754 1.624 15.328 3.4756 17.0764C3.53296 17.1305 3.60041 17.1727 3.67409 17.2007C3.74777 17.2287 3.82624 17.2419 3.90502 17.2395C3.9838 17.2372 4.06135 17.2194 4.13324 17.187C4.20513 17.1547 4.26995 17.1086 4.324 17.0512C4.37805 16.9939 4.42028 16.9264 4.44826 16.8527C4.47625 16.7791 4.48945 16.7006 4.48711 16.6218C4.48477 16.543 4.46694 16.4655 4.43463 16.3936C4.40232 16.3217 4.35616 16.2569 4.2988 16.2028C2.674 14.668 1.6 12.4036 1.6 10H4C4.15913 10 4.31174 9.93681 4.42427 9.82429C4.53679 9.71177 4.6 9.55915 4.6 9.40002C4.6 9.24089 4.53679 9.08828 4.42427 8.97576C4.31174 8.86324 4.15913 8.80002 4 8.80002H1.684C1.91291 7.2074 2.59621 5.71457 3.652 4.50042L5.3752 6.22482C5.48786 6.33749 5.64067 6.40078 5.8 6.40078C5.95933 6.40078 6.11214 6.33749 6.2248 6.22482C6.33747 6.11216 6.40076 5.95935 6.40076 5.80002C6.40076 5.64069 6.33747 5.48789 6.2248 5.37522L4.4992 3.65202ZM14.1388 4.96842C14.2478 4.88182 14.3836 4.83584 14.5229 4.83837C14.6621 4.8409 14.7961 4.89177 14.9019 4.98228C15.0078 5.07279 15.0788 5.19729 15.1029 5.33445C15.127 5.4716 15.1026 5.61286 15.034 5.73402L14.902 5.96922C14.4194 6.82135 13.9338 7.67176 13.4452 8.52042C13.0546 9.19955 12.6586 9.87557 12.2572 10.5484C12.1068 10.8016 11.9532 11.0528 11.7964 11.302C11.6764 11.4904 11.5588 11.6692 11.4724 11.77C11.1624 12.1332 10.7209 12.3583 10.2449 12.3959C9.76894 12.4334 9.29754 12.2804 8.9344 11.9704C8.57127 11.6604 8.34615 11.2189 8.30856 10.7429C8.27098 10.267 8.42402 9.79556 8.734 9.43242C8.8204 9.33162 8.9776 9.18642 9.1456 9.03882C9.3256 8.87922 9.5572 8.68362 9.8176 8.46402C10.3408 8.02722 10.996 7.49202 11.6344 6.97602C12.3959 6.36006 13.1599 5.74725 13.9264 5.13762L14.1388 4.96962V4.96842Z" fill="#1D2527"/>
</svg>
